<svg width="111" height="22" viewBox="0 0 111 22" fill="none" xmlns="http://www.w3.org/2000/svg">
<g clip-path="url(#clip0_1_213)">
<path d="M20.6308 8.4125C20.5731 8.24268 20.467 8.09347 20.3255 7.98328C20.184 7.8731 20.0133 7.80675 19.8346 7.79245L14.6054 7.37694L12.3426 2.36792C12.2706 2.20659 12.1533 2.06957 12.0051 1.97338C11.8569 1.8772 11.684 1.82596 11.5073 1.82587C11.3306 1.82577 11.1577 1.87681 11.0094 1.97283C10.861 2.06886 10.7437 2.20575 10.6714 2.36701L8.4086 7.37694L3.17945 7.79245C3.00376 7.80636 2.8358 7.8706 2.69566 7.97748C2.55552 8.08436 2.44914 8.22934 2.38925 8.39509C2.32935 8.56085 2.31848 8.74035 2.35793 8.91212C2.39737 9.08389 2.48547 9.24065 2.61168 9.36367L6.47599 13.1307L5.10931 19.0487C5.06782 19.2279 5.08112 19.4153 5.14749 19.5868C5.21386 19.7583 5.33024 19.9059 5.48153 20.0104C5.63282 20.1149 5.81202 20.1716 5.9959 20.173C6.17977 20.1744 6.35982 20.1205 6.51268 20.0183L11.507 16.6887L16.5014 20.0183C16.6576 20.122 16.8419 20.1754 17.0294 20.1713C17.2168 20.1672 17.3986 20.1057 17.5501 19.9953C17.7017 19.8848 17.8157 19.7305 17.877 19.5533C17.9383 19.376 17.9438 19.1843 17.8928 19.0038L16.2152 13.1335L20.3758 9.38935C20.6482 9.14353 20.7482 8.76013 20.6308 8.4125Z" fill="#F3CD03"/>
<path d="M42.6452 8.4125C42.5875 8.24268 42.4814 8.09347 42.3399 7.98328C42.1984 7.8731 42.0278 7.80675 41.849 7.79245L36.6198 7.37694L34.357 2.36792C34.285 2.20659 34.1677 2.06957 34.0195 1.97338C33.8713 1.8772 33.6984 1.82596 33.5217 1.82587C33.345 1.82577 33.1721 1.87681 33.0238 1.97283C32.8754 2.06886 32.7581 2.20575 32.6858 2.36701L30.423 7.37694L25.1939 7.79245C25.0182 7.80636 24.8502 7.8706 24.7101 7.97748C24.5699 8.08436 24.4635 8.22934 24.4037 8.39509C24.3438 8.56085 24.3329 8.74035 24.3723 8.91212C24.4118 9.08389 24.4999 9.24065 24.6261 9.36367L28.4904 13.1307L27.1237 19.0487C27.0822 19.2279 27.0955 19.4153 27.1619 19.5868C27.2283 19.7583 27.3446 19.9059 27.4959 20.0104C27.6472 20.1149 27.8264 20.1716 28.0103 20.173C28.1942 20.1744 28.3742 20.1205 28.5271 20.0183L33.5214 16.6887L38.5158 20.0183C38.672 20.122 38.8563 20.1754 39.0438 20.1713C39.2312 20.1672 39.413 20.1057 39.5645 19.9953C39.7161 19.8848 39.8301 19.7305 39.8914 19.5533C39.9527 19.376 39.9582 19.1843 39.9072 19.0038L38.2296 13.1335L42.3902 9.38935C42.6626 9.14353 42.7626 8.76013 42.6452 8.4125Z" fill="#F3CD03"/>
<path d="M64.6555 8.4125C64.5979 8.24268 64.4918 8.09347 64.3503 7.98328C64.2088 7.8731 64.0381 7.80675 63.8594 7.79245L58.6302 7.37694L56.3674 2.36792C56.2953 2.20659 56.1781 2.06957 56.0299 1.97338C55.8817 1.8772 55.7088 1.82596 55.5321 1.82587C55.3554 1.82577 55.1825 1.87681 55.0341 1.97283C54.8858 2.06886 54.7684 2.20575 54.6962 2.36701L52.4334 7.37694L47.2042 7.79245C47.0285 7.80636 46.8606 7.8706 46.7204 7.97748C46.5803 8.08436 46.4739 8.22934 46.414 8.39509C46.3541 8.56085 46.3433 8.74035 46.3827 8.91212C46.4222 9.08389 46.5103 9.24065 46.6365 9.36367L50.5008 13.1307L49.1341 19.0487C49.0926 19.2279 49.1059 19.4153 49.1723 19.5868C49.2386 19.7583 49.355 19.9059 49.5063 20.0104C49.6576 20.1149 49.8368 20.1716 50.0207 20.173C50.2046 20.1744 50.3846 20.1205 50.5375 20.0183L55.5318 16.6887L60.5261 20.0183C60.6824 20.122 60.8666 20.1754 61.0541 20.1713C61.2416 20.1672 61.4234 20.1057 61.5749 19.9953C61.7264 19.8848 61.8405 19.7305 61.9018 19.5533C61.963 19.376 61.9686 19.1843 61.9176 19.0038L60.24 13.1335L64.4005 9.38935C64.673 9.14353 64.7729 8.76013 64.6555 8.4125Z" fill="#F3CD03"/>
<path d="M86.6719 8.4125C86.6142 8.24268 86.5081 8.09347 86.3666 7.98328C86.2251 7.8731 86.0545 7.80675 85.8757 7.79245L80.6466 7.37694L78.3838 2.36792C78.3117 2.20659 78.1945 2.06957 78.0463 1.97338C77.898 1.8772 77.7252 1.82596 77.5485 1.82587C77.3718 1.82577 77.1988 1.87681 77.0505 1.97283C76.9022 2.06886 76.7848 2.20575 76.7126 2.36701L74.4497 7.37694L69.2206 7.79245C69.0449 7.80636 68.8769 7.8706 68.7368 7.97748C68.5967 8.08436 68.4903 8.22934 68.4304 8.39509C68.3705 8.56085 68.3596 8.74035 68.3991 8.91212C68.4385 9.08389 68.5266 9.24065 68.6528 9.36367L72.5171 13.1307L71.1505 19.0487C71.109 19.2279 71.1223 19.4153 71.1886 19.5868C71.255 19.7583 71.3714 19.9059 71.5227 20.0104C71.674 20.1149 71.8532 20.1716 72.037 20.173C72.2209 20.1744 72.401 20.1205 72.5538 20.0183L77.5482 16.6887L82.5425 20.0183C82.6987 20.122 82.883 20.1754 83.0705 20.1713C83.258 20.1672 83.4397 20.1057 83.5913 19.9953C83.7428 19.8848 83.8569 19.7305 83.9181 19.5533C83.9794 19.376 83.9849 19.1843 83.9339 19.0038L82.2563 13.1335L86.4169 9.38935C86.6893 9.14353 86.7893 8.76013 86.6719 8.4125Z" fill="#F3CD03"/>
<path d="M94.5323 13.1308L93.1657 19.0488C93.1233 19.228 93.136 19.4158 93.2021 19.5877C93.2682 19.7596 93.3845 19.9075 93.536 20.0122C93.6875 20.1169 93.867 20.1735 94.0511 20.1746C94.2352 20.1757 94.4154 20.1212 94.5681 20.0183L99.5624 16.6888L104.557 20.0183C104.713 20.1221 104.897 20.1755 105.085 20.1714C105.272 20.1673 105.454 20.1058 105.606 19.9953C105.757 19.8849 105.871 19.7306 105.932 19.5534C105.994 19.3761 105.999 19.1844 105.948 19.0039L104.271 13.1336L108.431 9.38944C108.564 9.26946 108.66 9.11304 108.705 8.93955C108.75 8.76605 108.744 8.58308 108.686 8.41327C108.628 8.24345 108.522 8.09424 108.381 7.98408C108.239 7.87392 108.069 7.80764 107.89 7.79345L102.661 7.37703L100.398 2.36801C100.326 2.20672 100.209 2.06976 100.06 1.97366C99.9121 1.87755 99.7391 1.82642 99.5624 1.82642C99.3857 1.82642 99.2128 1.87755 99.0646 1.97366C98.9163 2.06976 98.799 2.20672 98.7268 2.36801L96.464 7.37703L91.2349 7.79254C91.0592 7.80645 90.8912 7.87069 90.7511 7.97757C90.6109 8.08445 90.5046 8.22943 90.4447 8.39518C90.3848 8.56094 90.3739 8.74044 90.4133 8.91221C90.4528 9.08398 90.5409 9.24074 90.6671 9.36376L94.5323 13.1308ZM97.1492 9.16288C97.3129 9.14998 97.4702 9.09328 97.6044 8.99871C97.7387 8.90414 97.845 8.77519 97.9123 8.62538L99.5624 4.97387L101.213 8.62538C101.28 8.77519 101.386 8.90414 101.52 8.99871C101.655 9.09328 101.812 9.14998 101.976 9.16288L105.619 9.45181L102.619 12.1521C102.358 12.387 102.255 12.7484 102.35 13.0859L103.499 17.108L100.072 14.8231C99.922 14.7222 99.745 14.6683 99.5638 14.6683C99.3827 14.6683 99.2056 14.7222 99.0552 14.8231L95.4743 17.2107L96.4374 13.0409C96.4727 12.8876 96.468 12.7277 96.4237 12.5767C96.3793 12.4257 96.2969 12.2887 96.1843 12.1787L93.3977 9.4619L97.1492 9.16288Z" fill="#F3CD03"/>
</g>
<defs>
<clipPath id="clip0_1_213">
<rect width="110.068" height="22" fill="white" transform="translate(0.5)"/>
</clipPath>
</defs>
</svg>
