<svg width="111" height="22" viewBox="0 0 111 22" fill="none" xmlns="http://www.w3.org/2000/svg">
<g clip-path="url(#clip0_1_656)">
<path d="M20.1308 8.41256C20.0731 8.24274 19.967 8.09353 19.8255 7.98335C19.684 7.87316 19.5133 7.80681 19.3346 7.79251L14.1054 7.377L11.8426 2.36798C11.7706 2.20665 11.6533 2.06963 11.5051 1.97344C11.3569 1.87726 11.184 1.82602 11.0073 1.82593C10.8306 1.82583 10.6577 1.87687 10.5094 1.9729C10.361 2.06892 10.2437 2.20582 10.1714 2.36707L7.9086 7.377L2.67945 7.79251C2.50376 7.80642 2.3358 7.87066 2.19566 7.97754C2.05552 8.08442 1.94914 8.2294 1.88925 8.39516C1.82935 8.56091 1.81848 8.74041 1.85793 8.91218C1.89737 9.08395 1.98547 9.24072 2.11168 9.36373L5.97599 13.1308L4.60931 19.0488C4.56782 19.2279 4.58112 19.4154 4.64749 19.5869C4.71386 19.7584 4.83024 19.9059 4.98153 20.0105C5.13282 20.115 5.31202 20.1716 5.4959 20.173C5.67977 20.1744 5.85982 20.1205 6.01268 20.0183L11.007 16.6888L16.0014 20.0183C16.1576 20.1221 16.3419 20.1755 16.5294 20.1713C16.7168 20.1672 16.8986 20.1058 17.0501 19.9953C17.2017 19.8848 17.3157 19.7306 17.377 19.5533C17.4383 19.3761 17.4438 19.1843 17.3928 19.0039L15.7152 13.1336L19.8758 9.38941C20.1482 9.14359 20.2482 8.76019 20.1308 8.41256Z" fill="#F3CD03"/>
<path d="M42.1452 8.41256C42.0875 8.24274 41.9814 8.09353 41.8399 7.98335C41.6984 7.87316 41.5278 7.80681 41.349 7.79251L36.1198 7.377L33.857 2.36798C33.785 2.20665 33.6677 2.06963 33.5195 1.97344C33.3713 1.87726 33.1984 1.82602 33.0217 1.82593C32.845 1.82583 32.6721 1.87687 32.5238 1.9729C32.3754 2.06892 32.2581 2.20582 32.1858 2.36707L29.923 7.377L24.6939 7.79251C24.5182 7.80642 24.3502 7.87066 24.2101 7.97754C24.0699 8.08442 23.9635 8.2294 23.9037 8.39516C23.8438 8.56091 23.8329 8.74041 23.8723 8.91218C23.9118 9.08395 23.9999 9.24072 24.1261 9.36373L27.9904 13.1308L26.6237 19.0488C26.5822 19.2279 26.5955 19.4154 26.6619 19.5869C26.7283 19.7584 26.8446 19.9059 26.9959 20.0105C27.1472 20.115 27.3264 20.1716 27.5103 20.173C27.6942 20.1744 27.8742 20.1205 28.0271 20.0183L33.0214 16.6888L38.0158 20.0183C38.172 20.1221 38.3563 20.1755 38.5438 20.1713C38.7312 20.1672 38.913 20.1058 39.0645 19.9953C39.2161 19.8848 39.3301 19.7306 39.3914 19.5533C39.4527 19.3761 39.4582 19.1843 39.4072 19.0039L37.7296 13.1336L41.8902 9.38941C42.1626 9.14359 42.2626 8.76019 42.1452 8.41256Z" fill="#F3CD03"/>
<path d="M64.1555 8.41256C64.0979 8.24274 63.9918 8.09353 63.8503 7.98335C63.7088 7.87316 63.5381 7.80681 63.3594 7.79251L58.1302 7.377L55.8674 2.36798C55.7953 2.20665 55.6781 2.06963 55.5299 1.97344C55.3817 1.87726 55.2088 1.82602 55.0321 1.82593C54.8554 1.82583 54.6825 1.87687 54.5341 1.9729C54.3858 2.06892 54.2684 2.20582 54.1962 2.36707L51.9334 7.377L46.7042 7.79251C46.5285 7.80642 46.3606 7.87066 46.2204 7.97754C46.0803 8.08442 45.9739 8.2294 45.914 8.39516C45.8541 8.56091 45.8433 8.74041 45.8827 8.91218C45.9222 9.08395 46.0103 9.24072 46.1365 9.36373L50.0008 13.1308L48.6341 19.0488C48.5926 19.2279 48.6059 19.4154 48.6723 19.5869C48.7386 19.7584 48.855 19.9059 49.0063 20.0105C49.1576 20.115 49.3368 20.1716 49.5207 20.173C49.7046 20.1744 49.8846 20.1205 50.0375 20.0183L55.0318 16.6888L60.0261 20.0183C60.1824 20.1221 60.3666 20.1755 60.5541 20.1713C60.7416 20.1672 60.9234 20.1058 61.0749 19.9953C61.2264 19.8848 61.3405 19.7306 61.4018 19.5533C61.463 19.3761 61.4686 19.1843 61.4176 19.0039L59.74 13.1336L63.9005 9.38941C64.173 9.14359 64.2729 8.76019 64.1555 8.41256Z" fill="#F3CD03"/>
<path d="M86.1719 8.41256C86.1142 8.24274 86.0081 8.09353 85.8666 7.98335C85.7251 7.87316 85.5545 7.80681 85.3757 7.79251L80.1466 7.377L77.8838 2.36798C77.8117 2.20665 77.6945 2.06963 77.5463 1.97344C77.398 1.87726 77.2252 1.82602 77.0485 1.82593C76.8718 1.82583 76.6988 1.87687 76.5505 1.9729C76.4022 2.06892 76.2848 2.20582 76.2126 2.36707L73.9497 7.377L68.7206 7.79251C68.5449 7.80642 68.3769 7.87066 68.2368 7.97754C68.0967 8.08442 67.9903 8.2294 67.9304 8.39516C67.8705 8.56091 67.8596 8.74041 67.8991 8.91218C67.9385 9.08395 68.0266 9.24072 68.1528 9.36373L72.0171 13.1308L70.6505 19.0488C70.609 19.2279 70.6223 19.4154 70.6886 19.5869C70.755 19.7584 70.8714 19.9059 71.0227 20.0105C71.174 20.115 71.3532 20.1716 71.537 20.173C71.7209 20.1744 71.901 20.1205 72.0538 20.0183L77.0482 16.6888L82.0425 20.0183C82.1987 20.1221 82.383 20.1755 82.5705 20.1713C82.758 20.1672 82.9397 20.1058 83.0913 19.9953C83.2428 19.8848 83.3569 19.7306 83.4181 19.5533C83.4794 19.3761 83.4849 19.1843 83.4339 19.0039L81.7563 13.1336L85.9169 9.38941C86.1893 9.14359 86.2893 8.76019 86.1719 8.41256Z" fill="#F3CD03"/>
<path d="M94.0323 13.1308L92.6657 19.0488C92.6233 19.228 92.636 19.4158 92.7021 19.5877C92.7682 19.7596 92.8845 19.9075 93.036 20.0122C93.1875 20.1169 93.367 20.1735 93.5511 20.1746C93.7352 20.1757 93.9154 20.1212 94.0681 20.0183L99.0624 16.6888L104.057 20.0183C104.213 20.1221 104.397 20.1755 104.585 20.1714C104.772 20.1673 104.954 20.1058 105.106 19.9953C105.257 19.8849 105.371 19.7306 105.432 19.5534C105.494 19.3761 105.499 19.1844 105.448 19.0039L103.771 13.1336L107.931 9.38944C108.064 9.26946 108.16 9.11304 108.205 8.93955C108.25 8.76605 108.244 8.58308 108.186 8.41327C108.128 8.24345 108.022 8.09424 107.881 7.98408C107.739 7.87392 107.569 7.80764 107.39 7.79345L102.161 7.37703L99.898 2.36801C99.8259 2.20672 99.7086 2.06976 99.5603 1.97366C99.4121 1.87755 99.2391 1.82642 99.0624 1.82642C98.8857 1.82642 98.7128 1.87755 98.5646 1.97366C98.4163 2.06976 98.299 2.20672 98.2268 2.36801L95.964 7.37703L90.7349 7.79254C90.5592 7.80645 90.3912 7.87069 90.2511 7.97757C90.1109 8.08445 90.0046 8.22943 89.9447 8.39518C89.8848 8.56094 89.8739 8.74044 89.9133 8.91221C89.9528 9.08398 90.0409 9.24074 90.1671 9.36376L94.0323 13.1308ZM96.6492 9.16288C96.8129 9.14998 96.9702 9.09328 97.1044 8.99871C97.2387 8.90414 97.345 8.77519 97.4123 8.62538L99.0624 4.97387L100.713 8.62538C100.78 8.77519 100.886 8.90414 101.02 8.99871C101.155 9.09328 101.312 9.14998 101.476 9.16288L105.119 9.45181L102.119 12.1521C101.858 12.387 101.755 12.7484 101.85 13.0859L102.999 17.108L99.5724 14.8231C99.422 14.7222 99.245 14.6683 99.0638 14.6683C98.8827 14.6683 98.7056 14.7222 98.5552 14.8231L94.9743 17.2107L95.9374 13.0409C95.9727 12.8876 95.968 12.7277 95.9237 12.5767C95.8793 12.4257 95.7969 12.2887 95.6843 12.1787L92.8977 9.4619L96.6492 9.16288Z" fill="#F3CD03"/>
</g>
<defs>
<clipPath id="clip0_1_656">
<rect width="110.068" height="22" fill="white"/>
</clipPath>
</defs>
</svg>
